<svg xmlns="http://www.w3.org/2000/svg" xmlns:xlink="http://www.w3.org/1999/xlink" zoomAndPan="magnify" preserveAspectRatio="xMidYMid meet" version="1.2" viewBox="0.27 428.7 1251.22 306.98">
  <defs>
    <clipPath id="5d8c916d50">
      <path d="M 742 428 L 1251.488281 428 L 1251.488281 735.75 L 742 735.75 Z M 742 428 "/>
    </clipPath>
    <clipPath id="b55e51e94f">
      <path d="M 0.261719 453 L 317 453 L 317 735.75 L 0.261719 735.75 Z M 0.261719 453 "/>
    </clipPath>
    <clipPath id="2fbc80d46a">
      <path d="M 529 114.738281 L 532.746094 114.738281 L 532.746094 136.96875 L 529 136.96875 Z M 529 114.738281 "/>
    </clipPath>
  </defs>
  <g id="25e2541bdc">
    <g clip-rule="nonzero" clip-path="url(#5d8c916d50)">
      <path style=" stroke:none;fill-rule:nonzero;fill:#000000;fill-opacity:1;" d="M 884.566406 735.617188 C 884.351562 733.039062 882.328125 731.726562 880.628906 730.304688 C 877.300781 727.519531 873.9375 724.75 870.386719 722.261719 C 858.320312 713.8125 853.824219 702.722656 857.976562 688.332031 C 860.988281 677.914062 858.519531 668.71875 851.644531 660.414062 C 846.585938 654.300781 841.152344 648.53125 835.976562 642.53125 C 834.417969 640.726562 832.984375 638.8125 831.507812 636.9375 C 828.707031 633.378906 828.894531 629.738281 831.34375 626.121094 C 832.804688 623.96875 834.425781 621.925781 835.925781 619.796875 C 838.175781 616.613281 838.140625 613.355469 836.160156 610.046875 C 834.699219 607.609375 832.90625 605.421875 830.921875 603.417969 C 825.003906 597.429688 820.308594 590.578125 816.054688 583.335938 C 803.109375 561.273438 790.605469 538.945312 776.976562 517.289062 C 769.851562 505.964844 761.109375 495.835938 753.089844 485.171875 C 748.527344 479.105469 743.933594 473.035156 742.832031 465.148438 C 741.996094 459.1875 741.773438 453.269531 743.105469 447.355469 C 744.78125 439.902344 748.464844 436.613281 756.054688 435.183594 C 765.570312 433.394531 775.082031 433.878906 784.59375 434.820312 C 798.085938 436.15625 811.589844 437.449219 825.039062 439.121094 C 839.992188 440.976562 854.882812 443.292969 869.816406 445.300781 C 880.984375 446.804688 892.105469 448.960938 903.46875 448.273438 C 906.066406 448.117188 908.671875 447.957031 911.242188 447.582031 C 924.4375 445.648438 937.132812 448.882812 949.914062 451.207031 C 960.039062 453.046875 970.113281 455.171875 980.328125 456.511719 C 984.113281 457.007812 987.84375 456.542969 991.078125 454.730469 C 999.464844 450.027344 1008.410156 449.957031 1017.625 450.453125 C 1034.859375 451.382812 1052.113281 451.996094 1069.363281 452.683594 C 1074.683594 452.898438 1080.007812 452.730469 1085.300781 452.132812 C 1092.667969 451.300781 1099.191406 448.105469 1105.574219 444.589844 C 1112.789062 440.617188 1120.339844 437.714844 1128.726562 437.914062 C 1134.914062 438.058594 1141.019531 439.085938 1147.121094 440.101562 C 1156.308594 441.636719 1165.390625 443.789062 1174.714844 444.519531 C 1180.332031 444.960938 1185.21875 443.484375 1189.539062 439.960938 C 1190.96875 438.796875 1192.441406 437.671875 1193.78125 436.402344 C 1200.589844 429.945312 1208.644531 428.332031 1217.609375 430.1875 C 1219.09375 430.492188 1220.59375 430.78125 1222.035156 431.238281 C 1230.089844 433.777344 1237.984375 433.789062 1245.792969 430.1875 C 1247.527344 429.386719 1249.539062 429.183594 1251.421875 428.703125 C 1251.421875 530.03125 1251.414062 631.359375 1251.484375 732.6875 C 1251.484375 735.128906 1250.933594 735.679688 1248.492188 735.679688 C 1127.1875 735.609375 1005.875 735.621094 884.566406 735.621094 Z M 884.566406 735.617188 "/>
    </g>
    <g clip-rule="nonzero" clip-path="url(#b55e51e94f)">
      <path style=" stroke:none;fill-rule:nonzero;fill:#000000;fill-opacity:1;" d="M 0.328125 456.074219 C 1.679688 454.019531 3.667969 453.476562 5.925781 453.902344 C 9.859375 454.644531 13.675781 455.1875 17.242188 457.742188 C 19.875 459.625 23.8125 459.667969 27.152344 460.582031 C 39.785156 464.035156 52.550781 462.8125 65.308594 461.640625 C 84.535156 459.875 103.714844 457.414062 123.089844 458.011719 C 133.078125 458.320312 143.019531 459.269531 152.949219 460.222656 C 167.1875 461.597656 181.359375 461.21875 195.472656 459.132812 C 207.730469 457.320312 220.03125 456.285156 232.414062 456.101562 C 245.765625 455.90625 259.113281 455.78125 272.46875 456.050781 C 276.300781 456.128906 279.75 456.957031 282.691406 459.507812 C 285.191406 461.671875 288.179688 462.507812 291.410156 462.546875 C 295.753906 462.601562 300.097656 462.574219 304.4375 462.632812 C 310.714844 462.714844 316.589844 468.628906 316.609375 474.925781 C 316.617188 476.214844 316.527344 477.574219 316.140625 478.789062 C 313.277344 487.753906 310.421875 496.726562 307.371094 505.632812 C 304.710938 513.394531 299.824219 519.585938 292.789062 523.785156 C 285.496094 528.136719 280.722656 534.308594 277.171875 541.933594 C 273.019531 550.859375 268.625 559.710938 263.960938 568.371094 C 259.257812 577.105469 258.808594 585.910156 259.902344 595.429688 C 261.917969 612.996094 263.148438 630.636719 262.359375 648.355469 C 262.210938 651.679688 261.425781 654.945312 259.535156 657.574219 C 251.496094 668.757812 247.671875 681.828125 242.691406 694.378906 C 240.617188 699.613281 238.554688 704.855469 236.636719 710.144531 C 234.398438 716.324219 230.800781 721.730469 227.320312 727.222656 C 225.714844 729.753906 223.824219 732.28125 224.480469 735.621094 C 150.632812 735.621094 76.78125 735.605469 2.933594 735.679688 C 0.703125 735.683594 0.261719 735.242188 0.265625 733.011719 C 0.335938 640.699219 0.328125 548.390625 0.328125 456.074219 Z M 0.328125 456.074219 "/>
    </g>
    <path style=" stroke:none;fill-rule:nonzero;fill:#000000;fill-opacity:1;" d="M 336.59375 435.59375 C 339.046875 435.429688 340.609375 436.023438 341.121094 438.25 C 341.597656 440.304688 340.316406 441.167969 338.722656 441.839844 C 337.4375 442.378906 336.144531 442.902344 334.882812 443.496094 C 333.496094 444.152344 332.484375 443.9375 331.730469 442.5 C 330.910156 440.929688 329.054688 439.523438 329.90625 437.632812 C 330.753906 435.742188 332.980469 436.019531 334.757812 435.777344 C 335.503906 435.679688 336.253906 435.625 336.59375 435.59375 Z M 336.59375 435.59375 "/>
    <path style=" stroke:none;fill-rule:nonzero;fill:#000000;fill-opacity:1;" d="M 354.949219 515.636719 C 355.019531 516.988281 354.507812 517.625 353.035156 517.464844 C 349.855469 517.113281 345.867188 511.90625 346.476562 508.8125 C 346.539062 508.488281 346.621094 508.25 347.03125 508.175781 C 349.453125 507.738281 354.996094 512.945312 354.949219 515.636719 Z M 354.949219 515.636719 "/>
    <path style=" stroke:none;fill-rule:nonzero;fill:#000000;fill-opacity:1;" d="M 330.132812 502.9375 C 331.398438 502.871094 332.777344 502.757812 332.640625 505 C 332.464844 507.78125 331.390625 508.949219 328.660156 508.988281 C 326.714844 509.019531 325.175781 508.535156 325.027344 506.265625 C 324.878906 503.972656 326.394531 502.96875 330.132812 502.9375 Z M 330.132812 502.9375 "/>
    <path style=" stroke:none;fill-rule:nonzero;fill:#000000;fill-opacity:1;" d="M 327.050781 478.203125 C 326.867188 479.414062 326.503906 480.570312 325.214844 481 C 323.972656 481.414062 323.523438 480.296875 323.03125 479.527344 C 322.28125 478.355469 321.597656 477.128906 321 475.871094 C 320.5625 474.941406 320.457031 473.917969 321.675781 473.4375 C 322.617188 473.066406 323.628906 472.394531 324.390625 473.886719 C 325.15625 475.386719 326.90625 476.292969 327.050781 478.203125 Z M 327.050781 478.203125 "/>
  </g>
</svg>